<mxfile host="app.diagrams.net" modified="2021-09-10T00:02:15.693Z" agent="5.0 (Windows NT 6.1; Win64; x64) AppleWebKit/537.36 (KHTML, like Gecko) Chrome/92.0.4515.131 Safari/537.36" etag="XEbJ_nJB6UF3_iTP0Hdz" version="15.0.3" type="github">
  <diagram id="jWWKq6yXMQLdVD_n3nh2" name="Page-1">
    <mxGraphModel dx="971" dy="116" grid="1" gridSize="10" guides="1" tooltips="1" connect="1" arrows="1" fold="1" page="0" pageScale="1" pageWidth="850" pageHeight="1100" math="0" shadow="0">
      <root>
        <mxCell id="0" />
        <mxCell id="1" parent="0" />
        <mxCell id="_VsH6jPjc1Dl-bb9zUJQ-163" value="" style="rounded=0;whiteSpace=wrap;html=1;strokeColor=#000000;strokeWidth=2;fontFamily=Times New Roman;fontSize=12;fontColor=#000000;fillColor=none;dashed=1;labelBackgroundColor=none;" parent="1" vertex="1">
          <mxGeometry x="541" y="620" width="231" height="120" as="geometry" />
        </mxCell>
        <mxCell id="_VsH6jPjc1Dl-bb9zUJQ-24" value="" style="shape=parallelogram;perimeter=parallelogramPerimeter;whiteSpace=wrap;html=1;fixedSize=1;strokeColor=#1BA1E2;size=10;labelBackgroundColor=none;" parent="1" vertex="1">
          <mxGeometry x="302" y="571" height="20" as="geometry" />
        </mxCell>
        <mxCell id="_VsH6jPjc1Dl-bb9zUJQ-72" value="Encrypted video bitstream" style="text;html=1;strokeColor=none;fillColor=none;align=center;verticalAlign=middle;whiteSpace=wrap;rounded=0;fontSize=16;fontFamily=Times New Roman;" parent="1" vertex="1">
          <mxGeometry x="92.75999999999999" y="731" width="103.48" height="20" as="geometry" />
        </mxCell>
        <mxCell id="_VsH6jPjc1Dl-bb9zUJQ-120" value="" style="rounded=0;whiteSpace=wrap;html=1;strokeColor=#82b366;strokeWidth=1;fillColor=#d5e8d4;fontFamily=Times New Roman;fontSize=12;labelBackgroundColor=none;" parent="1" vertex="1">
          <mxGeometry x="272" y="656" width="40" height="30" as="geometry" />
        </mxCell>
        <mxCell id="_VsH6jPjc1Dl-bb9zUJQ-121" value="" style="rounded=0;whiteSpace=wrap;html=1;strokeColor=#82b366;strokeWidth=1;fillColor=#d5e8d4;fontFamily=Times New Roman;fontSize=12;labelBackgroundColor=none;" parent="1" vertex="1">
          <mxGeometry x="282" y="666" width="40" height="30" as="geometry" />
        </mxCell>
        <mxCell id="_VsH6jPjc1Dl-bb9zUJQ-122" value="LMVD" style="rounded=0;whiteSpace=wrap;html=1;strokeColor=#82b366;strokeWidth=1;fillColor=#d5e8d4;fontFamily=Times New Roman;fontSize=13;labelBackgroundColor=none;" parent="1" vertex="1">
          <mxGeometry x="292" y="676" width="40" height="30" as="geometry" />
        </mxCell>
        <mxCell id="_VsH6jPjc1Dl-bb9zUJQ-123" value="" style="rounded=0;whiteSpace=wrap;html=1;strokeColor=#b85450;strokeWidth=1;fillColor=#f8cecc;fontFamily=Times New Roman;fontSize=12;labelBackgroundColor=none;" parent="1" vertex="1">
          <mxGeometry x="272" y="591" width="40" height="30" as="geometry" />
        </mxCell>
        <mxCell id="_VsH6jPjc1Dl-bb9zUJQ-124" value="" style="rounded=0;whiteSpace=wrap;html=1;strokeColor=#b85450;strokeWidth=1;fillColor=#f8cecc;fontFamily=Times New Roman;fontSize=12;labelBackgroundColor=none;" parent="1" vertex="1">
          <mxGeometry x="282" y="601" width="40" height="30" as="geometry" />
        </mxCell>
        <mxCell id="_VsH6jPjc1Dl-bb9zUJQ-125" value="DNRC" style="rounded=0;whiteSpace=wrap;html=1;strokeColor=#b85450;strokeWidth=1;fillColor=#f8cecc;fontFamily=Times New Roman;fontSize=13;labelBackgroundColor=none;" parent="1" vertex="1">
          <mxGeometry x="292" y="611" width="40" height="30" as="geometry" />
        </mxCell>
        <mxCell id="_VsH6jPjc1Dl-bb9zUJQ-126" value="" style="rounded=0;whiteSpace=wrap;html=1;strokeColor=#6c8ebf;strokeWidth=1;fillColor=#dae8fc;fontFamily=Times New Roman;fontSize=12;labelBackgroundColor=none;" parent="1" vertex="1">
          <mxGeometry x="272" y="721" width="40" height="30" as="geometry" />
        </mxCell>
        <mxCell id="_VsH6jPjc1Dl-bb9zUJQ-127" value="" style="rounded=0;whiteSpace=wrap;html=1;strokeColor=#6c8ebf;strokeWidth=1;fillColor=#dae8fc;fontFamily=Times New Roman;fontSize=12;labelBackgroundColor=none;" parent="1" vertex="1">
          <mxGeometry x="282" y="731" width="40" height="30" as="geometry" />
        </mxCell>
        <mxCell id="_VsH6jPjc1Dl-bb9zUJQ-128" value="MBbit" style="rounded=0;whiteSpace=wrap;html=1;strokeColor=#6c8ebf;strokeWidth=1;fillColor=#dae8fc;fontFamily=Times New Roman;fontSize=13;labelBackgroundColor=none;" parent="1" vertex="1">
          <mxGeometry x="292" y="741" width="40" height="30" as="geometry" />
        </mxCell>
        <mxCell id="_VsH6jPjc1Dl-bb9zUJQ-129" value="..." style="text;html=1;strokeColor=none;fillColor=none;align=center;verticalAlign=middle;whiteSpace=wrap;rounded=0;fontFamily=Times New Roman;fontSize=16;fontColor=#000000;rotation=45;labelBackgroundColor=none;" parent="1" vertex="1">
          <mxGeometry x="447" y="635" width="40" height="20" as="geometry" />
        </mxCell>
        <mxCell id="_VsH6jPjc1Dl-bb9zUJQ-130" value="..." style="text;html=1;strokeColor=none;fillColor=none;align=center;verticalAlign=middle;whiteSpace=wrap;rounded=0;fontFamily=Times New Roman;fontSize=16;fontColor=#000000;rotation=45;labelBackgroundColor=none;" parent="1" vertex="1">
          <mxGeometry x="260" y="636" width="40" height="20" as="geometry" />
        </mxCell>
        <mxCell id="_VsH6jPjc1Dl-bb9zUJQ-131" value="..." style="text;html=1;strokeColor=none;fillColor=none;align=center;verticalAlign=middle;whiteSpace=wrap;rounded=0;fontFamily=Times New Roman;fontSize=16;fontColor=#000000;rotation=45;labelBackgroundColor=none;" parent="1" vertex="1">
          <mxGeometry x="260" y="701" width="40" height="20" as="geometry" />
        </mxCell>
        <mxCell id="_VsH6jPjc1Dl-bb9zUJQ-132" value="" style="shape=curlyBracket;whiteSpace=wrap;html=1;rounded=1;strokeWidth=1.2;fillColor=#F0F0F0;fontFamily=Times New Roman;fontSize=12;fontColor=#000000;rotation=-180;labelBackgroundColor=none;" parent="1" vertex="1">
          <mxGeometry x="338.51" y="601" width="20" height="160" as="geometry" />
        </mxCell>
        <mxCell id="_VsH6jPjc1Dl-bb9zUJQ-134" value="" style="shape=image;verticalLabelPosition=bottom;labelBackgroundColor=none;verticalAlign=top;aspect=fixed;imageAspect=0;image=data:image/png,iVBORw0KGgoAAAANSUhEUgAAAUAAAAC0CAIAAABqhmJGAAAOtklEQVR4nO3dz48b533H8bei1Ipl0n1ix0GWAYpJDXAdGAjG3U2BBE3AAEEvjdvtrVIu6sXKUYDzBygIcosA3QKpQKFDYZ1aLCpfgvTAXNqiEItpURRYFmmfFDWFIj/8JKTixFHsHIbPPN9ZLq3VLsnd4X5eWCwfDh/OzEp8+J3vPM88cw6eJnkHEWmOD530DojI0akBizSYGrCIiIiIiIiIiIiIiIiIiIiIiIiIiIiIiKzUuZPegbND113L4ulqJJEGUwMWaTA1YBERERERERERERERERERERERERERERERERERERERERERERERERERERERERERERERERERERERERERERERERERERERERERERERERERERFZGXfSOyAiIiIiIiIiIiIiIiIip9q5pW+h9RJAp3zyFsAIgImtNF76boisow+d9A6IyNGtqAFnkK1mSyJnyYoacFADFlmCDy99C50vAg4COMY92C3z4eGbS9+0yLpbUQT24OAa7AKKxiILsvwG3Jn++A79Eb0RgF/6VkXOhBVF4B4ARQzF2Wq2KrLulp8Db+wBxQOAwNMBKK9o7b6Q6gzfM294uPRdElkXK4rADoIpe12VLrIIy2/AYxiXp6Cnsnp7FpEjO4EI3IN8NVsVWXfLz4EnnyeGX7d9HihaFMDw+6aSRnSKHMXqRmIRx2MVOgstsiDLj8BAPGYOZRueKAEWWYzVjcTKYxzOFIFFFmT5EXj0EHAd+sD4hx6yciTW0G5a1wOLHMWKDqGdOQtdrGaTImfAig6hixHZKD4Z4xRxRRZhdTlwiGWnURwiC3K4Q+jWx1N500xmNfi1qWTL1t+XDxkUe1+k6klqPeurKhONhRY5itWNoAj1gl/ZhkXW14k1YBE5vidrwNkxtuRiwR9jJSJiPcG80D0o6vEzb71SgOuUCy8CtHEQ9t7KYkN1PEpvmfyM6UKC+n5Fju0J+oH7M0sKAALkMcD2D0pxsziIsuJ0IC2yCIsYyDGiIN57ob3/xXBQW/UL2KqI6Do+ERERERERERERERERERERERERERERERFZrSe4HrhhWn+UypN/My/oOmRZH7oaSaTBVjSx++q5qwRwAwIHzUUgshbWOQK7+COyrtYrB+69TGyxO3xvF9gig+LWl1Kdyci8QfmwNNvaRuA+OMh1KyZZa+uVA29BnILLDab3Mc3Ab07DcgAGJ7BfIkuythG41IcQJ8EMyodl7TQzB7702fLRQRg+D7AB4IYuMJ0f091/OY+nn7PO//rqvcM3zIp0HyZptmZH4FAPqiEWMghm8tpMZ6RlTTUzB34AwAYOwsa0ZXpwHYB8hK/PHe/jCa3dVe6kyPI1OAK7WAjgzX2bAhCfuth0ieelRdZJMyPwhgPysk0OP0cVgfnnAFm5fPuVsq6DPt93EKYdwA3+zhLZp8Gf5j4Qb8sUYph1sePXxXhb/g6r2iuRVWpmBCblvX0A8g4eQhxYFcCPCOC6BGLOLLJ2GhmBc8jrp6B9jMAlF4dw7EBmbp4osmaaE4EvvVwV3YM3HYQRDlz7QQZ+TADG/0FcXmz/K1AM8ZC3c6junPhPK9xpaazWhVSevGde+PWc+i+bJz817w1m+TvH3699GhmBHYQYY/O4MK/XCRCgmJ7EEllPzYnAUQ6uNe062oEwJgd6BHBtgHCPAPkoDaLMYxt2OpslK9Ax5eFyN9W8CFyYso8/LobcUK+cxV5iF8siy5Cd0HabE4HvvQ+wDVBsXAjg2jgI4x+Reoy+HCDvUIAfXXUQOmRQjL5wAjssp4qdI433Tflp4HqZcF2/4CGU8bP9CaoBfK8/b+rnAK8DcPc7AK8B+NF/AWwCMP4dU/93U/HGUxAvQm+bfdgz5ckj897H58zNacCGN72+If5k5mkpM4O0gsKvGK7+ebheX54BsUI/vtSLZ1VOleY04G2I2W+Z62Zt+pCNCeCGBMi7AAF6QAcH2QYefBcH2YgAYck5iZxSndqzUJVeBdJV4uVyb2o64Mb0NEoGvDFdGJheAzd1fc627PJSOSJw+zH7e0jNy4GJncABMCOuMiB2DrtYM8A1cylStVxkHnfQJW6FKc+reSKacz1w6xmYfrf1th468MNpNHZAt7w2+Eo//pv2xndCPH4uxmMHO21uAoNPmJXqeuC11vqaefJcKr76NwCXAbg3Scv7T6dy56OpfP9nZvkLlNO8ALwNcXzBxkOI55yHb5t9MP3J9oB3+91Ufv3F8tFB2PhkWv51sw/9vzPr+VVVanAEvha7gl09pQnmx5vIHE7B96WsB7/kz5I79PqbkwMbN2EHfBsHOy0KCON0diEDD0U7De240uNm9WbNiXXWzMs2LwExDpfK7LQzU3N6Xtr8LgNGy9QZmppHPc8SZqZ/6sWO0nkaGYGBXSigMJE2xL/Tx38FFyvPLhH5YG6mYJ+6ePS3pE1XW/HgypOycywnArc+bZ58LBW3n4V47q49HV/qIIz/n+owuPN+Vn3lDJ6C6VyTDNrpvXwV6G/Qg/74LzNgTAZs/GEAP6QHfe642NuU8UwO2QAPtExeUetz+xXSIK3PmCdfIF03+hOI/bHtjDi1sBvdDsT4OQoQo+Vtcx5kK/W7htEz1Tpd58OhWv6V8y6Gjfz2H1TrcaMfBGIMb/0irXN7zjjqrXYq3/iftF1eBBiVzeHZANwAcBu38zjKEP7Bx/orPYR2JlN1sRBmCn6m8qwsZsLl7x3YBTczaU7PhOWgCLzWwpzlxRLWuW/N7hib2MfFje7bdJjTC73EBuw6BKb9bK5MTU3+GWxVe71u+b04IIBrpZrTXLfsAR5Pjy4C5OX1Rp3p/M89KNp4YDBtvUU8CAkjzYm1btxsG7t9cHla7fC34hiZlZefya/Utuggu5y6l9x9M15oEX28WTyELrflBxSQdWpTVoSlNuBgZsMI9a8rZ+pw0Pecm/m/2Y3LQ2y6mPUX5q/K4sKb0KvPZZfr4qT1Ek5o5c58pB0pnPC4I8cPkJsVYpqGM03Jx2jkY/kc2HGbc651PIzuV1PZnMfrjV8K1VDH8aMCsjJn6P67h6JdNrlJqPZ49GlSAzbjSLdeAsKAHNz4L4CdB9yEbO98D65fJQfXvQO4B3jIvv2eB3cVD1n/AnEAZjH+RwdFmatM/tr8AYu/VlMWzJ5b6Zgc8jWfyoOHEI/p7G2w7Pjn7oup/OZ/mvV/JJUnv0zlnvkc8oJZzydhGtWzzsW0Eze+a+qbNtX6PbM89S3vbH/KVxFuK4MYZPbMoenmxfIxgzD4M2KTXnoOHOpxODPpqAfiLFZ5fXBViG+h/g1U8jGQZvFIYweymAb71M+e3p6ZAVvVSyJH5uondPwxVrVbX20pzGyl5M2Mq36RDbgcI1VmrcM0pNF3UgePzUCq3fLAgILp2Wb3IP0NV2AXwlba3XyTANkWQNZnFxjTg3zATap5J82/Zn+6XQ9hhIdQ5ie172ZpIPs/aHtul93PH/uKQ7WkTWBhnyjXJ5BaSoghx9WbTB4XLj4CB3Pi92hvD7F8J14CEiCPFxVlQPyrsno/cMkdlIQE81vEndYPg585px1iwdnzZ/GQe3E5cGuzKrrec6HaXvudattu809disZfzqqdu/XfVF82V7+ZdnTQCeC6AHR+Wv0x+bf/r0h/lcur81KTH5sd0jjntdNyAFcBuGVy1MlvTCX7GT6fiq99NpXH34IYt0d/BTFuD/92znoss85LLpUf2MsKTL5duzbY7MPeD81yMwahc5Eq0eu8DfF8+KhVbSxs/jHQ6y0hAmcmhIaY2XqA6bXRmKQ0i9V8/TghxFUR6/v6V2YRl2PWL/JY7rQG3n18/WRNML9LLi5ZcAOebrI/fVrU96B/z9SMecsOuG08cJ8+1XwFH7T31Jf4mZdE9htC9ZnZmHl1K9VZutm+6NnR14/7VId46veEL2Zw9Q5ekTPOHaIhOHPEeg6eMS8pb5SG6JrrurdMDjk2ueubtm/f5Mnd34cYde0czndt/UPMBX0cpk/YbV8ITM9jO8ahemH4o1S/23VV2x79ObBzmdDcq5FE1lI49Mhqv+B+YJEmOgVzpIX7QMqEw0F13LRPJy0p3mBHDVikEYIpOyDerkA5sDRHy/apXkzFzlMQI9jY5MbtH6Ry3+axxxnvYObNmph5rWyOPU/XzI81PMz9lkzbNGOzs9ZvHOR3yZUDizSOj6lyX4fQ0kSOeP+EsyrAnSWNhRZZtlC/aNZy9WrrKgBwXTmwNNb5gxff26qK7vq7VM14bwxxroy+T/V75hrgvhlfbXPa2r2CHx1cZ96+de1c0x2orlv6VFo++hez/p+n8tZTqTz+SHrv5G3iWA7lwLK2Qn3mlnVyJ46X1iG0rK+96WOIC9zqj6u7ptwH4lHAvOuZ5/VLmzmrrw25AsA1RWA5U8JaROObAFyDQjmwLI29J9ApnnP71vMAdwEYXYA4RvruT0ylw/TZHiJPvvQnqdy+DNWVSQOI83i1bkN1nwez3b75N2x9A8g2uaZDaDmz3Kk5TZ0/+WSpO3AFDaWUMyyUD3fTErfsJl1eD1/ekThe9w4UTz4eexf6XTLlwCKWO+kdOLwAXjmwyMG6r5SPDkLn5y7N5mFy43v2XtPp/kZMDpEz23HRW12IOXA/zVPtWh8PVOeozT2Kh18qHzNFYJEDuVMwqKvcqDN74mb2SjmwyAGCLcz25R6f7QfemluLarbzTm2viI1ZEVjk6LKT26iDoBxY5Mm8YfLerol/l81c0LVpL38BVbx9BPF23f0LUM1N/VaqPjGTVnZzsx4Tsl/9GEw7jxWBRRYvW/IKXSwoBxZZsKyXbk7g+2m5A558YHY2e/eCW+kuxIrAIgsWYsHHQla//+a+aodcmzvoVeXAIst0z+TDN9oA5RyUdydmubnn8Na7ALcAuG7m/RqYewXfTXmyIrDIyXNHfaMasMiq3I/hty6bmXjAzVSYRw1Y5IR5YP55Zj7wRmfn5r8kIqtn5r5uPZfKV9+ZrYoisEijqQGLNJgasEiD/RaV7/pwkQpsegAAAABJRU5ErkJggg==;imageBorder=#E0E0E0;" parent="1" vertex="1">
          <mxGeometry x="447" y="653.13" width="60" height="33.75" as="geometry" />
        </mxCell>
        <mxCell id="_VsH6jPjc1Dl-bb9zUJQ-136" value="Motion images" style="text;html=1;strokeColor=none;fillColor=none;align=center;verticalAlign=middle;whiteSpace=wrap;rounded=0;fontSize=16;fontFamily=Times New Roman;" parent="1" vertex="1">
          <mxGeometry x="438" y="720" width="98" height="20" as="geometry" />
        </mxCell>
        <mxCell id="_VsH6jPjc1Dl-bb9zUJQ-137" value="" style="shape=image;verticalLabelPosition=bottom;labelBackgroundColor=none;verticalAlign=top;aspect=fixed;imageAspect=0;image=data:image/png,iVBORw0KGgoAAAANSUhEUgAAAUAAAAC0CAIAAABqhmJGAAAOtklEQVR4nO3dz48b533H8bei1Ipl0n1ix0GWAYpJDXAdGAjG3U2BBE3AAEEvjdvtrVIu6sXKUYDzBygIcosA3QKpQKFDYZ1aLCpfgvTAXNqiEItpURRYFmmfFDWFIj/8JKTixFHsHIbPPN9ZLq3VLsnd4X5eWCwfDh/OzEp8+J3vPM88cw6eJnkHEWmOD530DojI0akBizSYGrCIiIiIiIiIiIiIiIiIiIiIiIiIiIiIiKzUuZPegbND113L4ulqJJEGUwMWaTA1YBERERERERERERERERERERERERERERERERERERERERERERERERERERERERERERERERERERERERERERERERERERERERERERERERERERFZGXfSOyAiIiIiIiIiIiIiIiIip9q5pW+h9RJAp3zyFsAIgImtNF76boisow+d9A6IyNGtqAFnkK1mSyJnyYoacFADFlmCDy99C50vAg4COMY92C3z4eGbS9+0yLpbUQT24OAa7AKKxiILsvwG3Jn++A79Eb0RgF/6VkXOhBVF4B4ARQzF2Wq2KrLulp8Db+wBxQOAwNMBKK9o7b6Q6gzfM294uPRdElkXK4rADoIpe12VLrIIy2/AYxiXp6Cnsnp7FpEjO4EI3IN8NVsVWXfLz4EnnyeGX7d9HihaFMDw+6aSRnSKHMXqRmIRx2MVOgstsiDLj8BAPGYOZRueKAEWWYzVjcTKYxzOFIFFFmT5EXj0EHAd+sD4hx6yciTW0G5a1wOLHMWKDqGdOQtdrGaTImfAig6hixHZKD4Z4xRxRRZhdTlwiGWnURwiC3K4Q+jWx1N500xmNfi1qWTL1t+XDxkUe1+k6klqPeurKhONhRY5itWNoAj1gl/ZhkXW14k1YBE5vidrwNkxtuRiwR9jJSJiPcG80D0o6vEzb71SgOuUCy8CtHEQ9t7KYkN1PEpvmfyM6UKC+n5Fju0J+oH7M0sKAALkMcD2D0pxsziIsuJ0IC2yCIsYyDGiIN57ob3/xXBQW/UL2KqI6Do+ERERERERERERERERERERERERERERERFZrSe4HrhhWn+UypN/My/oOmRZH7oaSaTBVjSx++q5qwRwAwIHzUUgshbWOQK7+COyrtYrB+69TGyxO3xvF9gig+LWl1Kdyci8QfmwNNvaRuA+OMh1KyZZa+uVA29BnILLDab3Mc3Ab07DcgAGJ7BfIkuythG41IcQJ8EMyodl7TQzB7702fLRQRg+D7AB4IYuMJ0f091/OY+nn7PO//rqvcM3zIp0HyZptmZH4FAPqiEWMghm8tpMZ6RlTTUzB34AwAYOwsa0ZXpwHYB8hK/PHe/jCa3dVe6kyPI1OAK7WAjgzX2bAhCfuth0ieelRdZJMyPwhgPysk0OP0cVgfnnAFm5fPuVsq6DPt93EKYdwA3+zhLZp8Gf5j4Qb8sUYph1sePXxXhb/g6r2iuRVWpmBCblvX0A8g4eQhxYFcCPCOC6BGLOLLJ2GhmBc8jrp6B9jMAlF4dw7EBmbp4osmaaE4EvvVwV3YM3HYQRDlz7QQZ+TADG/0FcXmz/K1AM8ZC3c6junPhPK9xpaazWhVSevGde+PWc+i+bJz817w1m+TvH3699GhmBHYQYY/O4MK/XCRCgmJ7EEllPzYnAUQ6uNe062oEwJgd6BHBtgHCPAPkoDaLMYxt2OpslK9Ax5eFyN9W8CFyYso8/LobcUK+cxV5iF8siy5Cd0HabE4HvvQ+wDVBsXAjg2jgI4x+Reoy+HCDvUIAfXXUQOmRQjL5wAjssp4qdI433Tflp4HqZcF2/4CGU8bP9CaoBfK8/b+rnAK8DcPc7AK8B+NF/AWwCMP4dU/93U/HGUxAvQm+bfdgz5ckj897H58zNacCGN72+If5k5mkpM4O0gsKvGK7+ebheX54BsUI/vtSLZ1VOleY04G2I2W+Z62Zt+pCNCeCGBMi7AAF6QAcH2QYefBcH2YgAYck5iZxSndqzUJVeBdJV4uVyb2o64Mb0NEoGvDFdGJheAzd1fc627PJSOSJw+zH7e0jNy4GJncABMCOuMiB2DrtYM8A1cylStVxkHnfQJW6FKc+reSKacz1w6xmYfrf1th468MNpNHZAt7w2+Eo//pv2xndCPH4uxmMHO21uAoNPmJXqeuC11vqaefJcKr76NwCXAbg3Scv7T6dy56OpfP9nZvkLlNO8ALwNcXzBxkOI55yHb5t9MP3J9oB3+91Ufv3F8tFB2PhkWv51sw/9vzPr+VVVanAEvha7gl09pQnmx5vIHE7B96WsB7/kz5I79PqbkwMbN2EHfBsHOy0KCON0diEDD0U7De240uNm9WbNiXXWzMs2LwExDpfK7LQzU3N6Xtr8LgNGy9QZmppHPc8SZqZ/6sWO0nkaGYGBXSigMJE2xL/Tx38FFyvPLhH5YG6mYJ+6ePS3pE1XW/HgypOycywnArc+bZ58LBW3n4V47q49HV/qIIz/n+owuPN+Vn3lDJ6C6VyTDNrpvXwV6G/Qg/74LzNgTAZs/GEAP6QHfe642NuU8UwO2QAPtExeUetz+xXSIK3PmCdfIF03+hOI/bHtjDi1sBvdDsT4OQoQo+Vtcx5kK/W7htEz1Tpd58OhWv6V8y6Gjfz2H1TrcaMfBGIMb/0irXN7zjjqrXYq3/iftF1eBBiVzeHZANwAcBu38zjKEP7Bx/orPYR2JlN1sRBmCn6m8qwsZsLl7x3YBTczaU7PhOWgCLzWwpzlxRLWuW/N7hib2MfFje7bdJjTC73EBuw6BKb9bK5MTU3+GWxVe71u+b04IIBrpZrTXLfsAR5Pjy4C5OX1Rp3p/M89KNp4YDBtvUU8CAkjzYm1btxsG7t9cHla7fC34hiZlZefya/Utuggu5y6l9x9M15oEX28WTyELrflBxSQdWpTVoSlNuBgZsMI9a8rZ+pw0Pecm/m/2Y3LQ2y6mPUX5q/K4sKb0KvPZZfr4qT1Ek5o5c58pB0pnPC4I8cPkJsVYpqGM03Jx2jkY/kc2HGbc651PIzuV1PZnMfrjV8K1VDH8aMCsjJn6P67h6JdNrlJqPZ49GlSAzbjSLdeAsKAHNz4L4CdB9yEbO98D65fJQfXvQO4B3jIvv2eB3cVD1n/AnEAZjH+RwdFmatM/tr8AYu/VlMWzJ5b6Zgc8jWfyoOHEI/p7G2w7Pjn7oup/OZ/mvV/JJUnv0zlnvkc8oJZzydhGtWzzsW0Eze+a+qbNtX6PbM89S3vbH/KVxFuK4MYZPbMoenmxfIxgzD4M2KTXnoOHOpxODPpqAfiLFZ5fXBViG+h/g1U8jGQZvFIYweymAb71M+e3p6ZAVvVSyJH5uondPwxVrVbX20pzGyl5M2Mq36RDbgcI1VmrcM0pNF3UgePzUCq3fLAgILp2Wb3IP0NV2AXwlba3XyTANkWQNZnFxjTg3zATap5J82/Zn+6XQ9hhIdQ5ie172ZpIPs/aHtul93PH/uKQ7WkTWBhnyjXJ5BaSoghx9WbTB4XLj4CB3Pi92hvD7F8J14CEiCPFxVlQPyrsno/cMkdlIQE81vEndYPg585px1iwdnzZ/GQe3E5cGuzKrrec6HaXvudattu809disZfzqqdu/XfVF82V7+ZdnTQCeC6AHR+Wv0x+bf/r0h/lcur81KTH5sd0jjntdNyAFcBuGVy1MlvTCX7GT6fiq99NpXH34IYt0d/BTFuD/92znoss85LLpUf2MsKTL5duzbY7MPeD81yMwahc5Eq0eu8DfF8+KhVbSxs/jHQ6y0hAmcmhIaY2XqA6bXRmKQ0i9V8/TghxFUR6/v6V2YRl2PWL/JY7rQG3n18/WRNML9LLi5ZcAOebrI/fVrU96B/z9SMecsOuG08cJ8+1XwFH7T31Jf4mZdE9htC9ZnZmHl1K9VZutm+6NnR14/7VId46veEL2Zw9Q5ekTPOHaIhOHPEeg6eMS8pb5SG6JrrurdMDjk2ueubtm/f5Mnd34cYde0czndt/UPMBX0cpk/YbV8ITM9jO8ahemH4o1S/23VV2x79ObBzmdDcq5FE1lI49Mhqv+B+YJEmOgVzpIX7QMqEw0F13LRPJy0p3mBHDVikEYIpOyDerkA5sDRHy/apXkzFzlMQI9jY5MbtH6Ry3+axxxnvYObNmph5rWyOPU/XzI81PMz9lkzbNGOzs9ZvHOR3yZUDizSOj6lyX4fQ0kSOeP+EsyrAnSWNhRZZtlC/aNZy9WrrKgBwXTmwNNb5gxff26qK7vq7VM14bwxxroy+T/V75hrgvhlfbXPa2r2CHx1cZ96+de1c0x2orlv6VFo++hez/p+n8tZTqTz+SHrv5G3iWA7lwLK2Qn3mlnVyJ46X1iG0rK+96WOIC9zqj6u7ptwH4lHAvOuZ5/VLmzmrrw25AsA1RWA5U8JaROObAFyDQjmwLI29J9ApnnP71vMAdwEYXYA4RvruT0ylw/TZHiJPvvQnqdy+DNWVSQOI83i1bkN1nwez3b75N2x9A8g2uaZDaDmz3Kk5TZ0/+WSpO3AFDaWUMyyUD3fTErfsJl1eD1/ekThe9w4UTz4eexf6XTLlwCKWO+kdOLwAXjmwyMG6r5SPDkLn5y7N5mFy43v2XtPp/kZMDpEz23HRW12IOXA/zVPtWh8PVOeozT2Kh18qHzNFYJEDuVMwqKvcqDN74mb2SjmwyAGCLcz25R6f7QfemluLarbzTm2viI1ZEVjk6LKT26iDoBxY5Mm8YfLerol/l81c0LVpL38BVbx9BPF23f0LUM1N/VaqPjGTVnZzsx4Tsl/9GEw7jxWBRRYvW/IKXSwoBxZZsKyXbk7g+2m5A558YHY2e/eCW+kuxIrAIgsWYsHHQla//+a+aodcmzvoVeXAIst0z+TDN9oA5RyUdydmubnn8Na7ALcAuG7m/RqYewXfTXmyIrDIyXNHfaMasMiq3I/hty6bmXjAzVSYRw1Y5IR5YP55Zj7wRmfn5r8kIqtn5r5uPZfKV9+ZrYoisEijqQGLNJgasEiD/RaV7/pwkQpsegAAAABJRU5ErkJggg==;imageBorder=#E0E0E0;" parent="1" vertex="1">
          <mxGeometry x="457" y="663.13" width="60" height="33.75" as="geometry" />
        </mxCell>
        <mxCell id="_VsH6jPjc1Dl-bb9zUJQ-138" value="" style="shape=image;verticalLabelPosition=bottom;labelBackgroundColor=none;verticalAlign=top;aspect=fixed;imageAspect=0;image=data:image/png,iVBORw0KGgoAAAANSUhEUgAAAUAAAAC0CAIAAABqhmJGAAAOtklEQVR4nO3dz48b533H8bei1Ipl0n1ix0GWAYpJDXAdGAjG3U2BBE3AAEEvjdvtrVIu6sXKUYDzBygIcosA3QKpQKFDYZ1aLCpfgvTAXNqiEItpURRYFmmfFDWFIj/8JKTixFHsHIbPPN9ZLq3VLsnd4X5eWCwfDh/OzEp8+J3vPM88cw6eJnkHEWmOD530DojI0akBizSYGrCIiIiIiIiIiIiIiIiIiIiIiIiIiIiIiKzUuZPegbND113L4ulqJJEGUwMWaTA1YBERERERERERERERERERERERERERERERERERERERERERERERERERERERERERERERERERERERERERERERERERERERERERERERERERERFZGXfSOyAiIiIiIiIiIiIiIiIip9q5pW+h9RJAp3zyFsAIgImtNF76boisow+d9A6IyNGtqAFnkK1mSyJnyYoacFADFlmCDy99C50vAg4COMY92C3z4eGbS9+0yLpbUQT24OAa7AKKxiILsvwG3Jn++A79Eb0RgF/6VkXOhBVF4B4ARQzF2Wq2KrLulp8Db+wBxQOAwNMBKK9o7b6Q6gzfM294uPRdElkXK4rADoIpe12VLrIIy2/AYxiXp6Cnsnp7FpEjO4EI3IN8NVsVWXfLz4EnnyeGX7d9HihaFMDw+6aSRnSKHMXqRmIRx2MVOgstsiDLj8BAPGYOZRueKAEWWYzVjcTKYxzOFIFFFmT5EXj0EHAd+sD4hx6yciTW0G5a1wOLHMWKDqGdOQtdrGaTImfAig6hixHZKD4Z4xRxRRZhdTlwiGWnURwiC3K4Q+jWx1N500xmNfi1qWTL1t+XDxkUe1+k6klqPeurKhONhRY5itWNoAj1gl/ZhkXW14k1YBE5vidrwNkxtuRiwR9jJSJiPcG80D0o6vEzb71SgOuUCy8CtHEQ9t7KYkN1PEpvmfyM6UKC+n5Fju0J+oH7M0sKAALkMcD2D0pxsziIsuJ0IC2yCIsYyDGiIN57ob3/xXBQW/UL2KqI6Do+ERERERERERERERERERERERERERERERFZrSe4HrhhWn+UypN/My/oOmRZH7oaSaTBVjSx++q5qwRwAwIHzUUgshbWOQK7+COyrtYrB+69TGyxO3xvF9gig+LWl1Kdyci8QfmwNNvaRuA+OMh1KyZZa+uVA29BnILLDab3Mc3Ab07DcgAGJ7BfIkuythG41IcQJ8EMyodl7TQzB7702fLRQRg+D7AB4IYuMJ0f091/OY+nn7PO//rqvcM3zIp0HyZptmZH4FAPqiEWMghm8tpMZ6RlTTUzB34AwAYOwsa0ZXpwHYB8hK/PHe/jCa3dVe6kyPI1OAK7WAjgzX2bAhCfuth0ieelRdZJMyPwhgPysk0OP0cVgfnnAFm5fPuVsq6DPt93EKYdwA3+zhLZp8Gf5j4Qb8sUYph1sePXxXhb/g6r2iuRVWpmBCblvX0A8g4eQhxYFcCPCOC6BGLOLLJ2GhmBc8jrp6B9jMAlF4dw7EBmbp4osmaaE4EvvVwV3YM3HYQRDlz7QQZ+TADG/0FcXmz/K1AM8ZC3c6junPhPK9xpaazWhVSevGde+PWc+i+bJz817w1m+TvH3699GhmBHYQYY/O4MK/XCRCgmJ7EEllPzYnAUQ6uNe062oEwJgd6BHBtgHCPAPkoDaLMYxt2OpslK9Ax5eFyN9W8CFyYso8/LobcUK+cxV5iF8siy5Cd0HabE4HvvQ+wDVBsXAjg2jgI4x+Reoy+HCDvUIAfXXUQOmRQjL5wAjssp4qdI433Tflp4HqZcF2/4CGU8bP9CaoBfK8/b+rnAK8DcPc7AK8B+NF/AWwCMP4dU/93U/HGUxAvQm+bfdgz5ckj897H58zNacCGN72+If5k5mkpM4O0gsKvGK7+ebheX54BsUI/vtSLZ1VOleY04G2I2W+Z62Zt+pCNCeCGBMi7AAF6QAcH2QYefBcH2YgAYck5iZxSndqzUJVeBdJV4uVyb2o64Mb0NEoGvDFdGJheAzd1fc627PJSOSJw+zH7e0jNy4GJncABMCOuMiB2DrtYM8A1cylStVxkHnfQJW6FKc+reSKacz1w6xmYfrf1th468MNpNHZAt7w2+Eo//pv2xndCPH4uxmMHO21uAoNPmJXqeuC11vqaefJcKr76NwCXAbg3Scv7T6dy56OpfP9nZvkLlNO8ALwNcXzBxkOI55yHb5t9MP3J9oB3+91Ufv3F8tFB2PhkWv51sw/9vzPr+VVVanAEvha7gl09pQnmx5vIHE7B96WsB7/kz5I79PqbkwMbN2EHfBsHOy0KCON0diEDD0U7De240uNm9WbNiXXWzMs2LwExDpfK7LQzU3N6Xtr8LgNGy9QZmppHPc8SZqZ/6sWO0nkaGYGBXSigMJE2xL/Tx38FFyvPLhH5YG6mYJ+6ePS3pE1XW/HgypOycywnArc+bZ58LBW3n4V47q49HV/qIIz/n+owuPN+Vn3lDJ6C6VyTDNrpvXwV6G/Qg/74LzNgTAZs/GEAP6QHfe642NuU8UwO2QAPtExeUetz+xXSIK3PmCdfIF03+hOI/bHtjDi1sBvdDsT4OQoQo+Vtcx5kK/W7htEz1Tpd58OhWv6V8y6Gjfz2H1TrcaMfBGIMb/0irXN7zjjqrXYq3/iftF1eBBiVzeHZANwAcBu38zjKEP7Bx/orPYR2JlN1sRBmCn6m8qwsZsLl7x3YBTczaU7PhOWgCLzWwpzlxRLWuW/N7hib2MfFje7bdJjTC73EBuw6BKb9bK5MTU3+GWxVe71u+b04IIBrpZrTXLfsAR5Pjy4C5OX1Rp3p/M89KNp4YDBtvUU8CAkjzYm1btxsG7t9cHla7fC34hiZlZefya/Utuggu5y6l9x9M15oEX28WTyELrflBxSQdWpTVoSlNuBgZsMI9a8rZ+pw0Pecm/m/2Y3LQ2y6mPUX5q/K4sKb0KvPZZfr4qT1Ek5o5c58pB0pnPC4I8cPkJsVYpqGM03Jx2jkY/kc2HGbc651PIzuV1PZnMfrjV8K1VDH8aMCsjJn6P67h6JdNrlJqPZ49GlSAzbjSLdeAsKAHNz4L4CdB9yEbO98D65fJQfXvQO4B3jIvv2eB3cVD1n/AnEAZjH+RwdFmatM/tr8AYu/VlMWzJ5b6Zgc8jWfyoOHEI/p7G2w7Pjn7oup/OZ/mvV/JJUnv0zlnvkc8oJZzydhGtWzzsW0Eze+a+qbNtX6PbM89S3vbH/KVxFuK4MYZPbMoenmxfIxgzD4M2KTXnoOHOpxODPpqAfiLFZ5fXBViG+h/g1U8jGQZvFIYweymAb71M+e3p6ZAVvVSyJH5uondPwxVrVbX20pzGyl5M2Mq36RDbgcI1VmrcM0pNF3UgePzUCq3fLAgILp2Wb3IP0NV2AXwlba3XyTANkWQNZnFxjTg3zATap5J82/Zn+6XQ9hhIdQ5ie172ZpIPs/aHtul93PH/uKQ7WkTWBhnyjXJ5BaSoghx9WbTB4XLj4CB3Pi92hvD7F8J14CEiCPFxVlQPyrsno/cMkdlIQE81vEndYPg585px1iwdnzZ/GQe3E5cGuzKrrec6HaXvudattu809disZfzqqdu/XfVF82V7+ZdnTQCeC6AHR+Wv0x+bf/r0h/lcur81KTH5sd0jjntdNyAFcBuGVy1MlvTCX7GT6fiq99NpXH34IYt0d/BTFuD/92znoss85LLpUf2MsKTL5duzbY7MPeD81yMwahc5Eq0eu8DfF8+KhVbSxs/jHQ6y0hAmcmhIaY2XqA6bXRmKQ0i9V8/TghxFUR6/v6V2YRl2PWL/JY7rQG3n18/WRNML9LLi5ZcAOebrI/fVrU96B/z9SMecsOuG08cJ8+1XwFH7T31Jf4mZdE9htC9ZnZmHl1K9VZutm+6NnR14/7VId46veEL2Zw9Q5ekTPOHaIhOHPEeg6eMS8pb5SG6JrrurdMDjk2ueubtm/f5Mnd34cYde0czndt/UPMBX0cpk/YbV8ITM9jO8ahemH4o1S/23VV2x79ObBzmdDcq5FE1lI49Mhqv+B+YJEmOgVzpIX7QMqEw0F13LRPJy0p3mBHDVikEYIpOyDerkA5sDRHy/apXkzFzlMQI9jY5MbtH6Ry3+axxxnvYObNmph5rWyOPU/XzI81PMz9lkzbNGOzs9ZvHOR3yZUDizSOj6lyX4fQ0kSOeP+EsyrAnSWNhRZZtlC/aNZy9WrrKgBwXTmwNNb5gxff26qK7vq7VM14bwxxroy+T/V75hrgvhlfbXPa2r2CHx1cZ96+de1c0x2orlv6VFo++hez/p+n8tZTqTz+SHrv5G3iWA7lwLK2Qn3mlnVyJ46X1iG0rK+96WOIC9zqj6u7ptwH4lHAvOuZ5/VLmzmrrw25AsA1RWA5U8JaROObAFyDQjmwLI29J9ApnnP71vMAdwEYXYA4RvruT0ylw/TZHiJPvvQnqdy+DNWVSQOI83i1bkN1nwez3b75N2x9A8g2uaZDaDmz3Kk5TZ0/+WSpO3AFDaWUMyyUD3fTErfsJl1eD1/ekThe9w4UTz4eexf6XTLlwCKWO+kdOLwAXjmwyMG6r5SPDkLn5y7N5mFy43v2XtPp/kZMDpEz23HRW12IOXA/zVPtWh8PVOeozT2Kh18qHzNFYJEDuVMwqKvcqDN74mb2SjmwyAGCLcz25R6f7QfemluLarbzTm2viI1ZEVjk6LKT26iDoBxY5Mm8YfLerol/l81c0LVpL38BVbx9BPF23f0LUM1N/VaqPjGTVnZzsx4Tsl/9GEw7jxWBRRYvW/IKXSwoBxZZsKyXbk7g+2m5A558YHY2e/eCW+kuxIrAIgsWYsHHQla//+a+aodcmzvoVeXAIst0z+TDN9oA5RyUdydmubnn8Na7ALcAuG7m/RqYewXfTXmyIrDIyXNHfaMasMiq3I/hty6bmXjAzVSYRw1Y5IR5YP55Zj7wRmfn5r8kIqtn5r5uPZfKV9+ZrYoisEijqQGLNJgasEiD/RaV7/pwkQpsegAAAABJRU5ErkJggg==;imageBorder=#E0E0E0;" parent="1" vertex="1">
          <mxGeometry x="467" y="673.13" width="60" height="33.75" as="geometry" />
        </mxCell>
        <mxCell id="_VsH6jPjc1Dl-bb9zUJQ-139" value="..." style="text;html=1;strokeColor=none;fillColor=none;align=center;verticalAlign=middle;whiteSpace=wrap;rounded=0;fontFamily=Times New Roman;fontSize=16;fontColor=#000000;rotation=45;labelBackgroundColor=none;" parent="1" vertex="1">
          <mxGeometry x="260" y="571" width="40" height="20" as="geometry" />
        </mxCell>
        <mxCell id="_VsH6jPjc1Dl-bb9zUJQ-145" style="edgeStyle=orthogonalEdgeStyle;curved=1;orthogonalLoop=1;jettySize=auto;html=1;exitX=1;exitY=0.5;exitDx=0;exitDy=0;endArrow=classicThin;endFill=1;strokeColor=#FF0000;fontFamily=Times New Roman;fontSize=12;fontColor=#000000;entryX=0.5;entryY=1;entryDx=0;entryDy=0;labelBackgroundColor=none;strokeWidth=1.2;" parent="1" target="_VsH6jPjc1Dl-bb9zUJQ-146" edge="1">
          <mxGeometry relative="1" as="geometry">
            <mxPoint x="554" y="680" as="targetPoint" />
            <mxPoint x="530" y="680.0050000000001" as="sourcePoint" />
          </mxGeometry>
        </mxCell>
        <mxCell id="_VsH6jPjc1Dl-bb9zUJQ-150" style="edgeStyle=orthogonalEdgeStyle;curved=1;orthogonalLoop=1;jettySize=auto;html=1;exitX=0.5;exitY=0;exitDx=0;exitDy=0;entryX=0;entryY=0.5;entryDx=0;entryDy=0;endArrow=classicThin;endFill=1;strokeColor=#FF0000;fontFamily=Times New Roman;fontSize=12;fontColor=#000000;labelBackgroundColor=none;" parent="1" source="_VsH6jPjc1Dl-bb9zUJQ-146" target="_VsH6jPjc1Dl-bb9zUJQ-148" edge="1">
          <mxGeometry relative="1" as="geometry" />
        </mxCell>
        <mxCell id="_VsH6jPjc1Dl-bb9zUJQ-146" value="" style="shape=trapezoid;perimeter=trapezoidPerimeter;whiteSpace=wrap;html=1;fixedSize=1;strokeColor=#b46504;strokeWidth=1;fillColor=#fad7ac;fontFamily=Times New Roman;fontSize=12;rotation=90;size=13.75;labelBackgroundColor=none;" parent="1" vertex="1">
          <mxGeometry x="550" y="650" width="67.5" height="60" as="geometry" />
        </mxCell>
        <mxCell id="_VsH6jPjc1Dl-bb9zUJQ-147" value="New&lt;br style=&quot;font-size: 15px;&quot;&gt;backbone" style="text;html=1;strokeColor=none;fillColor=none;align=center;verticalAlign=middle;whiteSpace=wrap;rounded=0;fontFamily=Times New Roman;fontSize=15;fontColor=#000000;labelBackgroundColor=none;" parent="1" vertex="1">
          <mxGeometry x="563.75" y="670" width="40" height="20" as="geometry" />
        </mxCell>
        <mxCell id="_VsH6jPjc1Dl-bb9zUJQ-160" style="edgeStyle=orthogonalEdgeStyle;rounded=0;orthogonalLoop=1;jettySize=auto;html=1;exitX=1;exitY=0.5;exitDx=0;exitDy=0;entryX=0;entryY=0.5;entryDx=0;entryDy=0;endArrow=classicThin;endFill=1;strokeColor=#FF0000;fontFamily=Times New Roman;fontSize=12;fontColor=#000000;labelBackgroundColor=none;" parent="1" source="_VsH6jPjc1Dl-bb9zUJQ-148" target="_VsH6jPjc1Dl-bb9zUJQ-158" edge="1">
          <mxGeometry relative="1" as="geometry">
            <Array as="points">
              <mxPoint x="704" y="680" />
              <mxPoint x="704" y="660" />
            </Array>
          </mxGeometry>
        </mxCell>
        <mxCell id="_VsH6jPjc1Dl-bb9zUJQ-161" style="edgeStyle=orthogonalEdgeStyle;rounded=0;orthogonalLoop=1;jettySize=auto;html=1;exitX=1;exitY=0.5;exitDx=0;exitDy=0;entryX=0;entryY=0.5;entryDx=0;entryDy=0;endArrow=classicThin;endFill=1;strokeColor=#FF0000;fontFamily=Times New Roman;fontSize=12;fontColor=#000000;labelBackgroundColor=none;" parent="1" source="_VsH6jPjc1Dl-bb9zUJQ-148" target="_VsH6jPjc1Dl-bb9zUJQ-159" edge="1">
          <mxGeometry relative="1" as="geometry">
            <Array as="points">
              <mxPoint x="704" y="680" />
              <mxPoint x="704" y="700" />
            </Array>
          </mxGeometry>
        </mxCell>
        <mxCell id="_VsH6jPjc1Dl-bb9zUJQ-148" value="Detection head" style="rounded=0;whiteSpace=wrap;html=1;strokeColor=#0e8088;strokeWidth=1;fillColor=#b0e3e6;fontFamily=Times New Roman;fontSize=15;labelBackgroundColor=none;" parent="1" vertex="1">
          <mxGeometry x="631" y="660" width="63" height="40" as="geometry" />
        </mxCell>
        <mxCell id="_VsH6jPjc1Dl-bb9zUJQ-158" value="Class" style="rounded=0;whiteSpace=wrap;html=1;strokeColor=#6D1F00;strokeWidth=1;fillColor=#a0522d;fontFamily=Times New Roman;fontSize=16;fontColor=#ffffff;labelBackgroundColor=none;" parent="1" vertex="1">
          <mxGeometry x="724" y="650" width="40" height="20" as="geometry" />
        </mxCell>
        <mxCell id="_VsH6jPjc1Dl-bb9zUJQ-159" value="Box" style="rounded=0;whiteSpace=wrap;html=1;strokeColor=#3A5431;strokeWidth=1;fillColor=#6d8764;fontFamily=Times New Roman;fontSize=16;fontColor=#ffffff;labelBackgroundColor=none;" parent="1" vertex="1">
          <mxGeometry x="724" y="690" width="40" height="20" as="geometry" />
        </mxCell>
        <mxCell id="_VsH6jPjc1Dl-bb9zUJQ-164" value="CNN-based detection model" style="text;html=1;strokeColor=none;fillColor=none;align=center;verticalAlign=middle;whiteSpace=wrap;rounded=0;fontSize=16;fontFamily=Times New Roman;" parent="1" vertex="1">
          <mxGeometry x="539.56" y="745" width="233.87" height="20" as="geometry" />
        </mxCell>
        <mxCell id="5EErEirLXomvaiufDaZ1-1" value="" style="aspect=fixed;pointerEvents=1;shadow=0;dashed=0;html=1;strokeColor=none;labelPosition=center;verticalLabelPosition=bottom;verticalAlign=top;align=center;shape=mxgraph.mscae.general.video;fontSize=18;fillColor=#006EAF;" parent="1" vertex="1">
          <mxGeometry x="120" y="655" width="49" height="50" as="geometry" />
        </mxCell>
        <mxCell id="5EErEirLXomvaiufDaZ1-4" value="" style="group" parent="1" vertex="1" connectable="0">
          <mxGeometry x="183" y="647.01" width="80" height="60" as="geometry" />
        </mxCell>
        <mxCell id="_VsH6jPjc1Dl-bb9zUJQ-94" value="" style="group;fontFamily=Times New Roman;labelBackgroundColor=none;fontSize=18;" parent="5EErEirLXomvaiufDaZ1-4" vertex="1" connectable="0">
          <mxGeometry width="80" height="60" as="geometry" />
        </mxCell>
        <mxCell id="_VsH6jPjc1Dl-bb9zUJQ-87" value="" style="shape=flexArrow;endArrow=classic;html=1;strokeColor=#23445d;fontSize=12;fontColor=#FF8000;width=41.714285714285715;endSize=6.228571428571429;fillColor=#bac8d3;labelBackgroundColor=none;" parent="_VsH6jPjc1Dl-bb9zUJQ-94" edge="1">
          <mxGeometry width="50" height="50" relative="1" as="geometry">
            <mxPoint x="2.1100000000000136" y="33" as="sourcePoint" />
            <mxPoint x="82.11000000000001" y="33" as="targetPoint" />
          </mxGeometry>
        </mxCell>
        <mxCell id="_VsH6jPjc1Dl-bb9zUJQ-90" value="" style="shape=flexArrow;endArrow=classic;html=1;strokeColor=#000000;fontSize=12;fontColor=#FF8000;width=29.72222222222222;endSize=5.611111111111111;labelBackgroundColor=none;" parent="_VsH6jPjc1Dl-bb9zUJQ-94" edge="1">
          <mxGeometry width="50" height="50" relative="1" as="geometry">
            <mxPoint y="32.5799999999997" as="sourcePoint" />
            <mxPoint y="32.5799999999997" as="targetPoint" />
          </mxGeometry>
        </mxCell>
        <mxCell id="_VsH6jPjc1Dl-bb9zUJQ-91" value="&lt;font style=&quot;font-size: 15px;&quot;&gt;ECDMI&lt;br style=&quot;font-size: 15px;&quot;&gt;Extraction&lt;/font&gt;" style="text;html=1;strokeColor=none;fillColor=none;align=center;verticalAlign=middle;whiteSpace=wrap;rounded=0;fontSize=15;fontFamily=Times New Roman;labelBackgroundColor=none;" parent="5EErEirLXomvaiufDaZ1-4" vertex="1">
          <mxGeometry x="17" y="23.120000000000005" width="40" height="20" as="geometry" />
        </mxCell>
        <mxCell id="5EErEirLXomvaiufDaZ1-5" style="edgeStyle=orthogonalEdgeStyle;rounded=0;orthogonalLoop=1;jettySize=auto;html=1;exitX=0.5;exitY=1;exitDx=0;exitDy=0;fontSize=17;" parent="1" source="_VsH6jPjc1Dl-bb9zUJQ-136" target="_VsH6jPjc1Dl-bb9zUJQ-136" edge="1">
          <mxGeometry relative="1" as="geometry" />
        </mxCell>
        <mxCell id="E1c-Qh3CDICd4hyu_XKq-8" value="" style="group" vertex="1" connectable="0" parent="1">
          <mxGeometry x="358.51" y="647.01" width="80" height="60" as="geometry" />
        </mxCell>
        <mxCell id="E1c-Qh3CDICd4hyu_XKq-9" value="" style="group;fontFamily=Times New Roman;labelBackgroundColor=none;fontSize=18;" vertex="1" connectable="0" parent="E1c-Qh3CDICd4hyu_XKq-8">
          <mxGeometry width="80" height="60" as="geometry" />
        </mxCell>
        <mxCell id="E1c-Qh3CDICd4hyu_XKq-10" value="" style="shape=flexArrow;endArrow=classic;html=1;strokeColor=#9673a6;fontSize=12;fontColor=#FF8000;width=41.714285714285715;endSize=6.228571428571429;fillColor=#e1d5e7;labelBackgroundColor=none;" edge="1" parent="E1c-Qh3CDICd4hyu_XKq-9">
          <mxGeometry width="50" height="50" relative="1" as="geometry">
            <mxPoint x="2.1100000000000136" y="33" as="sourcePoint" />
            <mxPoint x="82.11000000000001" y="33" as="targetPoint" />
          </mxGeometry>
        </mxCell>
        <mxCell id="E1c-Qh3CDICd4hyu_XKq-11" value="" style="shape=flexArrow;endArrow=classic;html=1;strokeColor=#000000;fontSize=12;fontColor=#FF8000;width=29.72222222222222;endSize=5.611111111111111;labelBackgroundColor=none;" edge="1" parent="E1c-Qh3CDICd4hyu_XKq-9">
          <mxGeometry width="50" height="50" relative="1" as="geometry">
            <mxPoint y="32.5799999999997" as="sourcePoint" />
            <mxPoint y="32.5799999999997" as="targetPoint" />
          </mxGeometry>
        </mxCell>
        <mxCell id="E1c-Qh3CDICd4hyu_XKq-12" value="Recon-struction" style="text;html=1;strokeColor=none;fillColor=none;align=center;verticalAlign=middle;whiteSpace=wrap;rounded=0;fontSize=15;fontFamily=Times New Roman;labelBackgroundColor=none;" vertex="1" parent="E1c-Qh3CDICd4hyu_XKq-8">
          <mxGeometry x="17" y="23.120000000000005" width="40" height="20" as="geometry" />
        </mxCell>
      </root>
    </mxGraphModel>
  </diagram>
</mxfile>
